<?xml version="1.0" encoding="utf-8"?>
<svg viewBox="0 -256 512 512" width="20px" height="20px" xmlns="http://www.w3.org/2000/svg" >
  <path style="fill:#858585" d="m 271.1864,490.54239 254.90105,0 0,1024.00001 -254.90105,0 z m -382.35154,-1365.33332 254.90105,0 0,2389.33333 -254.90105,0 z m -382.35157,682.66667 254.90105,0 0,1706.66666 -254.90105,0 z m -382.35156,-1024.00004 254.90105,0 0,2730.6667 -254.90105,0 z m -95.5868,-683.0297 c -88.25943,0 -159.31313,190.2933 -159.31313,426.6667 l 0,3242.9166 c 0,236.3734 71.0537,426.6667 159.31313,426.6667 l 1593.13154,0 c 88.25948,0 159.31315,-190.2933 159.31315,-426.6667 l 0,-3242.9166 c 0,-236.3734 -71.05367,-426.6667 -159.31315,-426.6667 l -1593.13154,0 z m 0.49786,341.6667 1592.13582,0 c 17.92771,0 32.36049,38.6533 32.36049,86.6666 l 0,3240.0834 c 0,48.0133 -14.43278,86.6666 -32.36049,86.6666 l -1592.13582,0 c -17.92771,0 -32.36049,-38.6533 -32.36049,-86.6666 l 0,-3240.0834 c 0,-48.0133 14.43278,-86.6666 32.36049,-86.6666 z" transform="matrix(0.26257899,0,0,0.09804443,303.1035,-5.7125656)" />
</svg>
